P2
# CREATOR: GIMP PNM Filter Version 1.1
46 55
255
255
255
255
255
255
255
255
255
255
255
255
255
255
255
255
255
255
255
255
255
255
255
255
255
255
255
255
255
255
255
255
255
255
255
255
255
255
255
255
255
255
255
255
255
255
255
255
255
255
255
255
255
255
255
255
255
255
255
243
255
255
255
255
255
255
255
255
250
255
255
254
254
255
255
255
255
255
255
255
255
255
255
255
255
255
255
255
255
255
255
255
255
255
255
255
255
255
211
255
255
255
255
255
245
254
255
255
255
255
255
255
255
255
255
255
255
255
255
255
255
255
255
255
255
255
255
255
255
255
255
255
255
255
255
255
255
255
255
255
255
255
255
255
177
69
197
179
230
252
254
247
238
255
255
255
255
255
255
255
255
254
248
250
253
255
255
255
255
255
255
255
255
255
255
255
255
255
255
255
255
255
255
255
255
255
255
255
255
174
156
29
77
49
66
123
239
254
255
253
255
249
255
255
252
253
255
255
255
255
255
255
255
255
255
255
255
255
255
255
255
255
255
255
255
255
255
255
255
255
255
255
255
255
221
58
73
70
77
52
51
87
144
184
242
253
255
249
255
255
250
250
255
255
250
253
253
250
251
255
255
255
255
255
255
255
255
255
255
255
255
255
255
255
255
255
255
255
255
238
176
45
54
97
98
84
73
53
19
116
254
253
220
223
241
255
255
254
255
254
254
255
255
253
253
255
255
255
255
255
255
255
255
255
255
255
255
255
255
255
255
255
255
255
207
136
57
48
79
102
91
107
91
55
47
175
204
103
66
81
106
141
174
194
213
235
248
255
255
253
253
255
255
255
255
255
255
255
255
255
255
255
255
255
255
255
255
255
255
255
74
25
35
98
101
91
95
103
86
64
24
53
54
104
163
147
110
82
72
64
72
99
160
177
195
211
231
251
255
255
255
255
255
255
255
255
255
255
255
255
255
255
255
255
255
255
155
61
42
90
92
97
97
76
61
38
79
131
192
229
229
229
229
225
222
203
119
23
19
37
38
55
99
132
183
245
253
255
255
255
255
255
255
255
255
255
255
255
255
255
255
255
172
58
50
94
104
91
76
33
54
141
221
229
229
229
229
229
229
229
174
79
39
53
83
86
86
83
60
35
86
184
254
254
255
255
255
255
255
255
255
255
255
255
255
255
255
255
172
49
30
53
83
73
53
145
179
127
229
229
229
229
231
203
138
67
37
55
84
99
91
89
92
97
101
83
61
51
190
251
255
255
255
255
255
255
255
255
255
255
255
255
255
255
218
136
51
18
38
41
112
131
127
48
184
229
229
167
112
57
30
63
95
94
87
94
93
103
105
92
85
95
76
32
69
232
255
255
255
255
255
255
255
255
255
255
255
255
255
255
254
224
89
40
32
35
45
45
96
188
244
222
114
43
42
76
96
90
88
98
98
86
90
66
60
58
43
41
50
45
48
216
255
255
255
255
255
255
255
255
255
255
255
255
255
255
250
244
155
141
80
49
93
181
229
229
146
72
35
79
100
95
95
100
102
86
63
45
30
31
60
74
44
21
36
58
38
105
170
255
255
255
255
255
206
114
147
255
255
255
255
255
253
253
247
242
119
73
229
229
229
122
31
44
101
98
90
93
98
92
67
40
38
50
75
65
65
71
78
82
72
52
65
46
78
146
153
168
154
112
61
36
133
255
255
255
255
255
253
241
253
244
120
121
229
146
61
52
75
104
82
101
96
98
82
51
31
36
49
55
74
80
81
73
65
67
77
82
61
43
43
59
59
87
80
71
46
35
71
170
255
255
255
255
255
248
255
234
92
56
56
46
66
84
94
102
94
96
91
84
39
23
33
78
78
72
70
55
53
72
85
78
65
59
88
81
69
52
45
55
55
38
49
43
50
103
222
255
255
255
251
254
249
201
75
43
74
86
101
97
92
98
96
87
47
25
44
91
71
65
60
58
46
74
77
50
43
70
86
80
50
57
71
78
75
78
83
80
68
47
37
55
215
255
255
255
253
243
145
78
30
65
92
101
100
102
100
89
70
42
41
40
50
68
65
86
91
81
81
49
43
71
77
53
50
72
89
67
59
63
63
61
59
52
43
48
47
139
241
255
255
255
104
92
44
36
38
92
98
98
87
96
87
52
41
39
40
101
127
131
131
95
56
67
82
98
89
59
54
74
75
56
62
69
83
84
62
44
43
46
51
40
41
61
188
255
255
255
67
65
72
70
35
62
103
104
91
79
56
27
39
76
61
181
221
196
206
204
145
85
47
62
86
98
82
58
60
80
86
71
62
62
70
86
88
76
68
26
39
63
183
255
255
62
54
63
71
53
28
85
95
86
68
48
55
58
47
67
77
120
186
205
210
209
207
177
153
107
58
45
64
78
68
49
52
66
84
86
75
72
70
60
37
46
34
34
113
255
255
80
66
69
65
49
28
61
74
51
47
33
61
78
45
69
69
123
206
215
198
197
215
195
197
206
194
149
98
69
68
75
73
56
49
56
62
67
64
52
61
36
41
84
202
255
255
255
54
57
57
69
48
39
45
34
63
45
44
48
43
128
164
156
160
167
204
205
209
204
204
201
203
209
205
177
137
109
84
65
62
73
71
65
63
64
52
78
91
205
254
255
255
255
255
57
68
51
67
59
27
43
69
65
71
106
36
76
92
69
54
66
67
135
177
210
203
197
186
143
128
125
152
191
192
73
74
46
60
57
44
67
101
156
221
255
255
255
255
255
255
68
56
78
58
35
65
64
51
64
108
175
101
38
55
128
142
146
96
47
87
185
209
154
51
60
73
63
39
48
148
147
81
58
58
106
167
197
238
255
255
255
255
255
255
255
255
255
59
56
36
92
101
48
45
31
105
203
82
46
207
231
229
229
229
153
45
134
162
47
123
191
231
229
182
101
83
100
58
38
46
73
217
255
255
255
255
255
255
255
255
255
255
255
61
64
140
225
85
80
135
72
71
117
43
152
229
229
229
229
229
230
72
74
112
66
223
229
229
229
229
225
73
14
23
55
90
47
135
255
255
255
255
255
255
255
255
255
255
255
255
255
198
254
92
104
145
120
63
36
60
210
229
190
76
191
229
229
132
29
25
83
228
229
158
115
229
229
138
38
42
128
141
87
100
255
255
255
255
255
255
255
255
255
255
255
255
255
255
249
169
51
45
92
69
25
61
198
229
156
52
198
229
229
117
37
66
62
225
229
111
60
228
229
135
30
65
106
50
45
153
255
255
255
255
255
255
255
255
255
255
255
255
255
255
255
235
92
35
73
94
37
36
168
229
230
202
231
229
229
97
76
117
53
203
229
228
185
229
229
99
30
99
70
25
87
242
255
255
255
255
255
255
255
255
255
255
255
255
255
255
255
255
228
73
72
143
62
33
82
215
229
229
229
229
145
55
150
175
53
131
229
229
229
229
186
53
55
89
60
100
221
255
255
255
255
255
255
255
255
254
255
255
255
255
255
255
255
255
248
154
52
164
79
72
38
87
163
180
169
116
43
91
205
201
106
51
105
173
184
136
63
64
72
91
71
208
255
255
255
255
255
255
255
255
255
255
255
255
255
255
255
255
255
255
254
202
56
162
94
85
136
59
51
32
24
40
109
186
205
207
191
126
55
36
42
48
62
143
60
100
66
209
255
255
255
255
255
255
255
255
255
255
255
255
255
255
255
255
255
255
244
211
42
151
121
82
196
202
167
147
146
161
188
201
209
192
173
199
200
160
127
132
180
163
48
122
80
220
255
255
255
255
255
255
255
255
255
255
255
255
255
255
255
255
255
255
250
228
63
103
87
33
157
211
180
199
214
190
140
92
97
59
63
146
208
219
194
172
218
132
77
130
72
224
255
255
255
255
255
255
255
255
255
255
255
255
255
255
255
255
255
255
255
255
125
56
43
34
139
201
93
134
223
211
149
102
93
105
157
205
221
223
140
81
184
108
45
53
96
255
255
255
255
255
255
255
255
255
255
255
255
255
255
255
255
255
255
255
255
255
255
255
222
145
70
129
64
80
156
198
201
200
213
218
227
218
186
155
91
78
176
93
67
89
199
255
255
255
255
255
255
255
255
255
255
255
255
255
255
255
255
255
255
255
255
255
255
255
255
211
76
90
160
132
72
90
132
146
144
156
129
102
64
58
128
191
191
100
255
255
255
255
255
255
255
255
255
255
255
255
255
255
255
255
255
255
255
255
255
255
255
255
255
255
255
235
80
143
209
215
184
139
98
86
68
61
65
93
138
168
203
211
168
255
255
255
255
255
255
255
255
255
255
255
255
255
255
255
255
255
255
255
255
255
255
255
255
255
255
255
255
244
123
129
201
212
213
216
199
194
179
180
193
198
206
214
209
212
127
255
255
255
255
255
255
255
255
255
255
255
255
255
255
255
255
255
255
255
255
255
255
255
255
255
255
255
255
251
153
100
209
201
207
214
204
216
212
220
202
222
215
214
217
191
90
255
255
255
255
255
255
255
255
255
255
255
255
255
255
255
255
255
255
255
255
255
255
255
255
255
255
255
255
255
196
78
186
207
218
208
205
222
204
206
197
211
215
213
217
185
100
255
255
255
255
255
255
255
255
255
255
255
255
255
255
255
255
255
255
255
255
255
255
255
255
255
255
255
255
255
232
90
150
209
203
206
210
195
196
203
224
182
207
222
201
145
108
255
255
255
255
255
255
255
255
255
255
255
255
255
255
255
255
255
255
255
255
255
255
255
255
255
255
255
255
255
252
116
107
208
191
216
200
113
127
118
164
111
156
218
202
109
165
254
255
255
255
255
255
255
255
255
255
255
255
255
255
255
255
255
255
255
255
255
255
255
255
255
255
255
255
255
255
182
69
191
214
210
203
132
106
141
185
174
186
222
186
94
225
255
255
255
255
255
255
255
255
255
255
255
255
255
255
255
255
255
255
255
255
255
255
255
255
255
255
255
255
255
255
251
101
139
212
197
220
226
202
188
212
223
219
210
137
143
255
255
255
255
255
255
255
255
255
255
255
255
255
255
255
255
255
255
255
255
255
255
255
255
255
255
255
255
255
255
255
250
177
98
189
220
209
202
215
220
217
206
221
209
114
255
255
255
255
255
255
255
255
255
255
255
255
255
255
255
255
255
255
255
255
255
255
255
255
255
255
255
255
255
255
255
255
255
251
156
76
155
214
220
213
223
211
227
206
128
134
255
255
255
255
255
255
255
255
255
255
255
255
255
255
255
255
255
255
255
255
255
255
255
255
255
255
255
255
255
255
255
255
255
255
255
146
76
85
93
97
86
78
80
72
76
208
255
255
255
255
255
255
255
255
255
255
255
255
255
255
255
255
255
255
255
255
255
255
255
255
255
255
255
255
255
255
255
255
255
255
255
255
92
43
72
67
70
48
27
47
144
251
255
255
255
255
255
255
255
255
255
255
255
255
255
255
255
255
255
255
255
255
255
255
255
255
255
255
255
255
255
255
255
255
255
255
255
255
139
78
195
201
196
151
69
41
192
253
255
255
255
255
255
255
255
255
255
255
255
255
255
255
255
255
255
255
255
255
255
255
255
255
255
255
255
255
255
255
255
255
255
255
255
255
140
69
203
205
204
200
137
54
208
253
253
255
255
255
255
255
255
255
255
255
255
255
255
255
255
255
255
255
255
255
255
255
255
255
255
255
255
255
255
255
255
255
255
255
255
255
135
81
140
116
85
104
109
59
180
253
247
252
255
255
255
255
255
255
255
255
255
255
255
255
255
255
255
